<?xml version="1.0" encoding="UTF-8" standalone="no"?>
<!-- Created with Inkscape (http://www.inkscape.org/) -->

<svg
   xmlns:dc="http://purl.org/dc/elements/1.1/"
   xmlns:cc="http://creativecommons.org/ns#"
   xmlns:rdf="http://www.w3.org/1999/02/22-rdf-syntax-ns#"
   xmlns:svg="http://www.w3.org/2000/svg"
   xmlns="http://www.w3.org/2000/svg"
   xmlns:sodipodi="http://sodipodi.sourceforge.net/DTD/sodipodi-0.dtd"
   xmlns:inkscape="http://www.inkscape.org/namespaces/inkscape"
   width="513.54834mm"
   height="253.18428mm"
   viewBox="0 0 513.54834 253.18428"
   version="1.1"
   id="svg8"
   sodipodi:docname="logo.svg"
   inkscape:version="0.92.3 (2405546, 2018-03-11)">
  <defs
     id="defs2" />
  <sodipodi:namedview
     id="base"
     pagecolor="#ffffff"
     bordercolor="#666666"
     borderopacity="1.0"
     inkscape:pageopacity="0.0"
     inkscape:pageshadow="2"
     inkscape:zoom="0.24748737"
     inkscape:cx="874.17365"
     inkscape:cy="962.66599"
     inkscape:document-units="mm"
     inkscape:current-layer="text932"
     showgrid="false"
     showguides="true"
     inkscape:guide-bbox="true"
     fit-margin-top="0"
     fit-margin-left="0"
     fit-margin-right="0"
     fit-margin-bottom="0"
     inkscape:window-width="1920"
     inkscape:window-height="1052"
     inkscape:window-x="0"
     inkscape:window-y="0"
     inkscape:window-maximized="1"
     inkscape:snap-others="false"
     inkscape:object-nodes="false"
     inkscape:snap-nodes="false"
     inkscape:snap-global="false">
    <sodipodi:guide
       position="425.97501,227.77916"
       orientation="0,1"
       id="guide926"
       inkscape:locked="false" />
    <sodipodi:guide
       position="463.01668,38.791063"
       orientation="0,1"
       id="guide928"
       inkscape:locked="false" />
    <sodipodi:guide
       position="916.7272,156.02003"
       orientation="1,0"
       id="guide934"
       inkscape:locked="false" />
    <sodipodi:guide
       position="1280.3403,45.650973"
       orientation="1,0"
       id="guide936"
       inkscape:locked="false" />
    <sodipodi:guide
       position="-0.64293644,147.02084"
       orientation="1,0"
       id="guide1131"
       inkscape:locked="false" />
    <sodipodi:guide
       position="407.71007,-69.983932"
       orientation="1,0"
       id="guide1133"
       inkscape:locked="false" />
    <sodipodi:guide
       position="380.61786,163.52321"
       orientation="0,1"
       id="guide1135"
       inkscape:locked="false" />
    <sodipodi:guide
       position="298.30313,138.44562"
       orientation="1,0"
       id="guide838"
       inkscape:locked="false" />
  </sodipodi:namedview>
  <metadata
     id="metadata5">
    <rdf:RDF>
      <cc:Work
         rdf:about="">
        <dc:format>image/svg+xml</dc:format>
        <dc:type
           rdf:resource="http://purl.org/dc/dcmitype/StillImage" />
        <dc:title></dc:title>
      </cc:Work>
    </rdf:RDF>
  </metadata>
  <g
     inkscape:label="Layer 1"
     inkscape:groupmode="layer"
     id="layer1"
     transform="translate(204.62008,-9.3357369)">
    <g
       id="g920"
       style="fill:#000000"
       transform="translate(691.69354)" />
    <g
       aria-label="EE"
       style="font-style:normal;font-variant:normal;font-weight:normal;font-stretch:normal;font-size:234.65333557px;line-height:1.25;font-family:Ani;-inkscape-font-specification:Ani;letter-spacing:0px;word-spacing:0px;fill:#000000;fill-opacity:1;stroke:none;stroke-width:5.86633396"
       id="text924" />
    <g
       aria-label="Electricity Exchange"
       style="font-style:normal;font-weight:normal;font-size:35.70622253px;line-height:1.25;font-family:sans-serif;letter-spacing:0px;word-spacing:0px;fill:#000000;fill-opacity:1;stroke:none;stroke-width:0.89265561"
       id="text932">
      <path
         style="fill:#000000;fill-opacity:1;stroke:none;stroke-width:0.92191464"
         d="M 93.774857,178.47855 H -7.6535546 c -7.3365754,0 -13.8842834,-2.28776 -19.6431224,-6.86327 -6.153293,-4.81219 -9.22994,-10.76825 -9.22994,-17.8682 V 51.862913 c 0,-7.17883 3.076647,-13.174336 9.22994,-17.986519 5.837746,-4.654407 12.385453,-6.981611 19.6431224,-6.981611 H 93.774857 V 45.591298 H 44.075332 c -3.076641,0 -5.324961,0.986103 -6.744958,2.958309 -1.42,1.972207 -2.13,4.378298 -2.13,7.218274 V 92.33258 h 53.722908 v 18.22319 H 35.200374 v 39.28635 c 0,2.83998 0.71,5.24607 2.13,7.21828 1.419997,1.97221 3.668317,2.95831 6.744958,2.95831 h 49.699525 z"
         id="path1074"
         inkscape:connector-curvature="0"
         sodipodi:nodetypes="cscsscsccsssccccssscc" />
      <path
         id="path974"
         style="fill:#000000;fill-opacity:1;stroke:none;stroke-width:1.01154089"
         d="M 158.08753,35.68522 A 20.89768,20.89768 0 0 1 137.18985,56.582899 20.89768,20.89768 0 0 1 116.29216,35.68522 20.89768,20.89768 0 0 1 137.18985,14.78754 20.89768,20.89768 0 0 1 158.08753,35.68522 Z M 260.75856,9.3357369 a 21.503412,21.503412 0 0 0 -21.50338,21.5033731 21.503412,21.503412 0 0 0 3.06556,11.019592 l -28.26983,28.893491 a 31.195091,31.195091 0 0 0 -19.92229,-7.203317 31.195091,31.195091 0 0 0 -31.19545,31.194862 31.195091,31.195091 0 0 0 31.19545,31.195442 31.195091,31.195091 0 0 0 19.17273,-6.6031 l 18.71304,16.58092 a 42.098229,42.098229 0 0 0 -10.32509,27.57709 42.098229,42.098229 0 0 0 42.09794,42.0985 42.098229,42.098229 0 0 0 42.09849,-42.0985 42.098229,42.098229 0 0 0 -42.09849,-42.0979 42.098229,42.098229 0 0 0 -27.64153,10.41527 l -18.54907,-16.55107 a 31.195091,31.195091 0 0 0 7.72682,-20.516652 31.195091,31.195091 0 0 0 -7.02002,-19.688643 l 27.92082,-28.403941 a 21.503412,21.503412 0 0 0 14.5343,5.691914 A 21.503412,21.503412 0 0 0 282.26194,30.83911 21.503412,21.503412 0 0 0 260.75856,9.3357369 Z"
         inkscape:connector-curvature="0" />
      <path
         id="path1233"
         style="font-style:normal;font-variant:normal;font-weight:normal;font-stretch:normal;font-size:medium;line-height:1.25;font-family:Cantarell;-inkscape-font-specification:Cantarell;letter-spacing:0px;word-spacing:0px;fill:#000000;fill-opacity:1;stroke:none;stroke-width:1.34287369"
         d="m 288.89024,229.78518 c 0,-4.57324 3.18924,-8.66511 7.94301,-8.66511 5.29534,0 7.10057,3.61046 7.10057,8.66511 z m 9.68805,13.71974 c -7.10056,0 -9.8084,-4.45289 -9.8084,-9.74824 h 20.15839 v -3.9715 c 0,-7.82267 -4.57324,-12.6366 -12.03486,-12.6366 -8.60493,0 -13.17818,6.55899 -13.17818,15.16392 0,9.68806 5.05465,15.16393 14.26132,15.16393 4.99446,0 9.26684,-1.32384 10.47033,-2.28663 l -1.44418,-3.7308 c -0.7221,0.60174 -4.51308,2.04592 -8.42442,2.04592 z m -35.42385,3.97151 c 3.79097,0 5.95725,-0.90261 8.36422,-2.52733 v 4.9343 c 0,5.71657 -1.68488,8.72528 -7.76249,8.72528 -3.91132,0 -8.00318,-2.3468 -8.60493,-2.70785 l -1.44418,3.73081 c 1.38402,0.78227 5.17499,2.88837 10.71103,2.88837 7.76248,0 12.09505,-4.33255 12.09505,-12.27556 v -32.37379 h -3.5503 l -1.32384,1.86541 c -3.18922,-1.74506 -6.79969,-2.64767 -9.20666,-2.64767 -8.30406,0 -12.09504,7.16074 -12.09504,15.40462 0,7.64215 4.4529,14.98341 12.81714,14.98341 z m 8.36422,-6.19796 c -2.22645,1.44419 -3.91133,2.22645 -7.10057,2.22645 -6.49883,0 -8.90579,-5.11481 -8.90579,-11.31277 0,-5.23517 1.6247,-10.89155 8.12353,-10.89155 2.40697,0 5.05464,0.72209 7.88283,1.98575 z m -32.74142,-13.05782 v 18.65404 h 4.99448 v -19.85753 c 0,-6.19795 -3.30959,-9.92876 -9.50755,-9.92876 -3.36976,0 -6.85987,0.96279 -10.34998,2.88836 l -1.08314,-2.1061 h -3.42994 v 29.00403 h 4.99447 v -23.52816 c 2.88836,-1.38402 5.59621,-2.04593 8.06336,-2.04593 4.75377,0 6.3183,2.04593 6.3183,6.92005 z m -38.78046,-7.10058 c 4.99447,0 6.73952,1.62471 6.73952,8.66511 -9.38719,0 -18.23281,1.02296 -18.23281,9.56771 0,4.87413 4.39272,8.12354 9.38719,8.12354 3.00871,0 5.95726,-1.08314 8.84562,-3.24941 l 1.20349,2.64767 h 3.73081 v -19.0151 c 0,-7.40143 -3.30958,-10.71101 -11.0119,-10.71101 -4.2122,0 -7.64214,1.02296 -10.04911,2.16626 l 1.44418,3.73081 c 1.56454,-0.78226 4.6936,-1.92558 7.94301,-1.92558 z m 6.73952,19.31596 c -2.16626,1.74506 -4.45289,3.06889 -8.12352,3.06889 -2.88837,0 -5.29534,-1.80522 -5.29534,-4.69359 0,-4.9343 6.98022,-5.05465 13.41886,-5.05465 z m -43.3951,6.43866 v -23.58834 c 2.76801,-1.32384 5.41568,-1.98575 7.82266,-1.98575 4.75377,0 6.3183,2.04593 6.3183,6.92005 v 18.65404 h 4.99446 v -19.85753 c 0,-6.19795 -3.30958,-9.92876 -9.50753,-9.92876 -3.18924,0 -6.43866,0.84244 -9.62789,2.52732 v -15.94619 h -4.99447 v 43.20516 z m -22.04356,0.60174 c 4.63342,0 8.54475,-1.44419 9.80841,-2.28663 l -1.44418,-3.7308 c -0.84244,0.48139 -3.97151,2.04592 -7.76249,2.04592 -6.07761,0 -9.26685,-3.61046 -9.26685,-11.19242 0,-7.22093 3.30959,-11.19243 9.92877,-11.19243 2.46714,0 4.69359,0.7221 6.559,1.56454 l 1.44418,-3.73081 c -2.82819,-1.20349 -5.83691,-1.80522 -8.6651,-1.80522 -9.26685,0 -14.26131,6.0776 -14.26131,15.16392 0,9.32702 4.87412,15.16393 13.65957,15.16393 z m -38.25863,-29.60577 h -5.776736 l 10.470336,14.62236 -10.169465,14.38167 h 5.475865 l 7.46161,-10.65086 7.5218,10.65086 h 5.95725 l -10.34998,-14.50202 10.53051,-14.50201 h -5.59622 l -7.76248,10.83138 z m -33.348801,29.00403 h 24.430773 v -4.39273 H 74.684678 v -15.58515 h 17.811598 v -4.39273 H 74.684678 v -12.87731 h 19.436304 v -4.39271 H 69.690209 Z m -26.949642,-29.00403 -8.905799,24.06973 -8.9058,-24.06973 h -5.235165 l 11.673818,30.50838 -5.536038,13.41888 h 5.054643 l 16.608113,-43.92726 z m -32.273173,29.60577 c 3.610458,0 5.596211,-0.54157 7.341266,-1.32384 l -1.022964,-3.61046 c -1.022962,0.36105 -2.467146,0.78226 -4.392724,0.78226 -3.3697624,0 -3.9715051,-2.22644 -3.9715051,-4.51306 v -16.96916 h 8.3040561 v -3.97151 H 8.4214669 v -8.12353 H 3.4269982 v 8.12353 h -4.8741199 v 3.97151 h 4.8741199 v 18.71421 c 0,3.91133 1.8052292,6.92005 7.0403958,6.92005 z M -9.3092767,213.17707 c 1.8052292,0 3.2494133,-1.44418 3.2494133,-3.24942 0,-1.80523 -1.4441841,-3.24941 -3.2494133,-3.24941 -1.8052293,0 -3.2494133,1.44418 -3.2494133,3.24941 0,1.80524 1.444184,3.24942 3.2494133,3.24942 z m -2.4069733,4.69359 v 29.00403 h 4.8139464 v -29.00403 z m -17.049071,29.60577 c 4.633422,0 8.544753,-1.44419 9.808414,-2.28663 l -1.444183,-3.7308 c -0.842442,0.48139 -3.971506,2.04592 -7.762488,2.04592 -6.077607,0 -9.266845,-3.61046 -9.266845,-11.19242 0,-7.22093 3.309587,-11.19243 9.928762,-11.19243 2.467147,0 4.693598,0.7221 6.559002,1.56454 l 1.444183,-3.73081 c -2.828193,-1.20349 -5.836909,-1.80522 -8.665102,-1.80522 -9.266845,0 -14.261314,6.0776 -14.261314,15.16392 0,9.32702 4.87412,15.16393 13.659571,15.16393 z m -23.206606,-34.29936 c 1.805229,0 3.249413,-1.44418 3.249413,-3.24942 0,-1.80523 -1.444184,-3.24941 -3.249413,-3.24941 -1.805231,0 -3.249413,1.44418 -3.249413,3.24941 0,1.80524 1.444182,3.24942 3.249413,3.24942 z m -2.406973,4.69359 v 29.00403 h 4.813945 v -29.00403 z m -5.976996,3.97151 1.022964,-4.51308 c -0.962791,-0.18051 -1.504359,-0.24069 -3.18924,-0.24069 -3.550284,0 -6.197955,1.38401 -9.146497,4.45289 l -1.083138,-3.67063 h -3.429942 v 29.00403 h 4.994475 v -21.48224 c 1.323835,-1.68488 4.513074,-4.09185 7.461616,-4.09185 1.384009,0 2.467146,0.24069 3.369762,0.54157 z m -28.722901,25.63426 c 3.610464,0 5.596217,-0.54157 7.341275,-1.32384 l -1.022973,-3.61046 c -1.02296,0.36105 -2.467143,0.78226 -4.392716,0.78226 -3.369768,0 -3.971506,-2.22644 -3.971506,-4.51306 v -16.96916 h 8.304054 v -3.97151 h -8.304054 v -8.12353 h -4.994479 v 8.12353 h -4.874114 v 3.97151 h 4.874114 v 18.71421 c 0,3.91133 1.805238,6.92005 7.040399,6.92005 z m -25.834523,0 c 4.63342,0 8.54475,-1.44419 9.8084,-2.28663 l -1.44418,-3.7308 c -0.84243,0.48139 -3.97151,2.04592 -7.76248,2.04592 -6.07761,0 -9.26685,-3.61046 -9.26685,-11.19242 0,-7.22093 3.30959,-11.19243 9.92876,-11.19243 2.46715,0 4.69361,0.7221 6.559,1.56454 l 1.44418,-3.73081 c -2.82818,-1.20349 -5.8369,-1.80522 -8.66509,-1.80522 -9.26685,0 -14.26132,6.0776 -14.26132,15.16392 0,9.32702 4.87412,15.16393 13.65958,15.16393 z m -39.51198,-17.69125 c 0,-4.57324 3.18924,-8.66511 7.94301,-8.66511 5.29534,0 7.10058,3.61046 7.10058,8.66511 z m 9.68807,13.71974 c -7.10057,0 -9.80842,-4.45289 -9.80842,-9.74824 h 20.15841 v -3.9715 c 0,-7.82267 -4.57326,-12.6366 -12.03487,-12.6366 -8.60493,0 -13.17817,6.55899 -13.17817,15.16392 0,9.68806 5.05463,15.16393 14.26131,15.16393 4.99447,0 9.26685,-1.32384 10.47033,-2.28663 l -1.44419,-3.7308 c -0.72208,0.60174 -4.51306,2.04592 -8.4244,2.04592 z m -20.27592,-0.18053 c -3.18924,0 -3.30959,-2.1061 -3.30959,-4.51306 v -35.1418 h -4.99447 v 36.88685 c 0,4.09185 3.00872,6.92005 7.64214,6.92005 1.50436,0 2.5875,-0.30088 3.18924,-0.54157 l -0.96279,-3.79098 c -0.48139,0.12038 -0.90261,0.18051 -1.56453,0.18051 z m -39.60693,3.5503 h 24.43078 v -4.39273 h -19.43631 v -15.58515 h 17.81161 v -4.39273 h -17.81161 v -12.87731 h 19.43631 v -4.39271 h -24.43078 z"
         inkscape:connector-curvature="0" />
      <path
         sodipodi:nodetypes="cscsscsccsssccccssscc"
         inkscape:connector-curvature="0"
         id="path840"
         d="M -74.070406,178.47855 H -175.49882 c -7.33657,0 -13.88428,-2.28776 -19.64312,-6.86327 -6.15329,-4.81219 -9.22994,-10.76825 -9.22994,-17.8682 V 51.862913 c 0,-7.17883 3.07665,-13.174336 9.22994,-17.986519 5.83775,-4.654407 12.38545,-6.981611 19.64312,-6.981611 h 101.428414 v 18.696515 h -49.699524 c -3.07664,0 -5.32496,0.986103 -6.74496,2.958309 -1.42,1.972207 -2.13,4.378298 -2.13,7.218274 V 92.33258 h 53.722909 v 18.22319 h -53.722909 v 39.28635 c 0,2.83998 0.71,5.24607 2.13,7.21828 1.42,1.97221 3.66832,2.95831 6.74496,2.95831 h 49.699524 z"
         style="fill:#000000;fill-opacity:1;stroke:none;stroke-width:0.92191464" />
    </g>
  </g>
</svg>
